<mxfile host="app.diagrams.net" modified="2024-01-31T23:34:41.272Z" agent="Mozilla/5.0 (Windows NT 10.0; Win64; x64) AppleWebKit/537.36 (KHTML, like Gecko) Chrome/119.0.0.0 Safari/537.36" etag="Y6i0c6mZU-eCVJLjK7eD" version="22.1.21" type="github">
  <diagram name="Page-1" id="-Qfp89TB7cpaRXaCVrgq">
    <mxGraphModel dx="2074" dy="1140" grid="1" gridSize="10" guides="1" tooltips="1" connect="1" arrows="1" fold="1" page="1" pageScale="1" pageWidth="827" pageHeight="1169" math="0" shadow="0">
      <root>
        <mxCell id="0" />
        <mxCell id="1" parent="0" />
        <mxCell id="ByYncmj56QXi_yfbcFDC-7" value="" style="edgeStyle=orthogonalEdgeStyle;rounded=0;orthogonalLoop=1;jettySize=auto;html=1;" edge="1" parent="1" source="3YSTLiqjNnNqbeXAGMGi-1" target="ByYncmj56QXi_yfbcFDC-6">
          <mxGeometry relative="1" as="geometry" />
        </mxCell>
        <mxCell id="ByYncmj56QXi_yfbcFDC-8" value="" style="edgeStyle=orthogonalEdgeStyle;rounded=0;orthogonalLoop=1;jettySize=auto;html=1;" edge="1" parent="1" source="3YSTLiqjNnNqbeXAGMGi-1" target="ByYncmj56QXi_yfbcFDC-6">
          <mxGeometry relative="1" as="geometry" />
        </mxCell>
        <mxCell id="ByYncmj56QXi_yfbcFDC-10" value="" style="edgeStyle=orthogonalEdgeStyle;rounded=0;orthogonalLoop=1;jettySize=auto;html=1;" edge="1" parent="1" source="3YSTLiqjNnNqbeXAGMGi-1" target="ByYncmj56QXi_yfbcFDC-9">
          <mxGeometry relative="1" as="geometry">
            <Array as="points">
              <mxPoint x="160" y="60" />
              <mxPoint x="160" y="130" />
            </Array>
          </mxGeometry>
        </mxCell>
        <mxCell id="ByYncmj56QXi_yfbcFDC-12" style="edgeStyle=orthogonalEdgeStyle;rounded=0;orthogonalLoop=1;jettySize=auto;html=1;entryX=0;entryY=0.5;entryDx=0;entryDy=0;" edge="1" parent="1" source="3YSTLiqjNnNqbeXAGMGi-1" target="ByYncmj56QXi_yfbcFDC-11">
          <mxGeometry relative="1" as="geometry">
            <Array as="points">
              <mxPoint x="160" y="60" />
              <mxPoint x="160" y="210" />
            </Array>
          </mxGeometry>
        </mxCell>
        <mxCell id="3YSTLiqjNnNqbeXAGMGi-1" value="DEM&lt;sub&gt;1&lt;/sub&gt;" style="rounded=0;whiteSpace=wrap;html=1;" parent="1" vertex="1">
          <mxGeometry y="30" width="120" height="60" as="geometry" />
        </mxCell>
        <mxCell id="ByYncmj56QXi_yfbcFDC-6" value="Sub1" style="rounded=0;whiteSpace=wrap;html=1;" vertex="1" parent="1">
          <mxGeometry x="210" y="30" width="120" height="60" as="geometry" />
        </mxCell>
        <mxCell id="ByYncmj56QXi_yfbcFDC-9" value="Sub2" style="rounded=0;whiteSpace=wrap;html=1;" vertex="1" parent="1">
          <mxGeometry x="210" y="100" width="120" height="60" as="geometry" />
        </mxCell>
        <mxCell id="ByYncmj56QXi_yfbcFDC-11" value="Sub2" style="rounded=0;whiteSpace=wrap;html=1;" vertex="1" parent="1">
          <mxGeometry x="210" y="180" width="120" height="60" as="geometry" />
        </mxCell>
      </root>
    </mxGraphModel>
  </diagram>
</mxfile>
